<svg width="167" height="18" viewBox="0 0 167 18" fill="none" xmlns="http://www.w3.org/2000/svg">
<path fill-rule="evenodd" clip-rule="evenodd" d="M157.293 17.7071C156.902 17.3166 156.902 16.6834 157.293 16.2929L164.586 9L157.293 1.70711C156.902 1.31658 156.902 0.683419 157.293 0.292893C157.683 -0.097631 158.317 -0.097631 158.707 0.292893L166.707 8.29289C167.098 8.68342 167.098 9.31658 166.707 9.70711L158.707 17.7071C158.317 18.0976 157.683 18.0976 157.293 17.7071Z" fill="#1A1A1A"/>
<path fill-rule="evenodd" clip-rule="evenodd" d="M0 9C4.82823e-08 8.44771 0.447715 8 1 8L166 8.00001C166.552 8.00001 167 8.44773 167 9.00001C167 9.5523 166.552 10 166 10L1 10C0.447715 10 -4.82823e-08 9.55228 0 9Z" fill="#1A1A1A"/>
</svg>
