<svg width="32" height="32" viewBox="0 0 32 32" fill="none" xmlns="http://www.w3.org/2000/svg">
<rect width="32" height="32" rx="16" fill="#EBDFE1"/>
<path fill-rule="evenodd" clip-rule="evenodd" d="M8 11C8 9.34315 9.34315 8 11 8H21C22.6569 8 24 9.34315 24 11V21C24 22.6569 22.6569 24 21 24H11C9.34315 24 8 22.6569 8 21V11ZM11 10C10.4477 10 10 10.4477 10 11V21C10 21.5523 10.4477 22 11 22H21C21.5523 22 22 21.5523 22 21V11C22 10.4477 21.5523 10 21 10H11Z" fill="#1A1A1A"/>
<path d="M12 13C12 12.4477 12.4477 12 13 12H19C19.5523 12 20 12.4477 20 13C20 13.5523 19.5523 14 19 14H13C12.4477 14 12 13.5523 12 13Z" fill="#1A1A1A"/>
<path d="M12 16C12 15.4477 12.4477 15 13 15H19C19.5523 15 20 15.4477 20 16C20 16.5523 19.5523 17 19 17H13C12.4477 17 12 16.5523 12 16Z" fill="#1A1A1A"/>
<path d="M12 19C12 18.4477 12.4477 18 13 18H15C15.5523 18 16 18.4477 16 19C16 19.5523 15.5523 20 15 20H13C12.4477 20 12 19.5523 12 19Z" fill="#1A1A1A"/>
</svg>
