<svg width="24" height="24" viewBox="0 0 24 24" fill="none" xmlns="http://www.w3.org/2000/svg">
<path fill-rule="evenodd" clip-rule="evenodd" d="M7 4C4.79086 4 3 5.79086 3 8C3 8.75371 3.31792 9.75841 4.03551 10.9866C4.73765 12.1884 5.72654 13.442 6.83333 14.6513C8.68052 16.6696 10.7324 18.4313 12 19.4595C13.2676 18.4313 15.3195 16.6696 17.1667 14.6513C18.2735 13.442 19.2624 12.1884 19.9645 10.9866C20.6821 9.75841 21 8.75371 21 8C21 5.79086 19.2091 4 17 4C15.7534 4 14.6411 4.5679 13.9043 5.46664C12.9229 6.66375 11.0771 6.66375 10.0957 5.46664C9.35894 4.5679 8.24661 4 7 4ZM11.4189 21.5541C11.7651 21.8252 12.2349 21.8252 12.5811 21.5541C14.8517 19.776 23 13.0436 23 8C23 4.68629 20.3137 2 17 2C15.129 2 13.4579 2.85643 12.3576 4.19867C12.1764 4.41974 11.8236 4.41974 11.6424 4.19867C10.5421 2.85643 8.87105 2 7 2C3.68629 2 1 4.68629 1 8C1 13.0436 9.14831 19.776 11.4189 21.5541Z" fill="#1A1A1A"/>
</svg>
