<svg width="48" height="48" viewBox="0 0 48 48" fill="none" xmlns="http://www.w3.org/2000/svg">
<path fill-rule="evenodd" clip-rule="evenodd" d="M35.0061 9.21036C35.6272 8.66217 36.5751 8.72128 37.1233 9.34239C39.4822 12.0151 40.9154 15.5295 40.9154 19.3749C40.9154 23.2203 39.4823 26.7347 37.1233 29.4073C36.5751 30.0284 35.6272 30.0875 35.0061 29.5393C34.385 28.9911 34.3259 28.0432 34.8741 27.4221C36.7679 25.2765 37.9154 22.4615 37.9154 19.3749C37.9154 16.2883 36.7679 13.4733 34.8741 11.3276C34.3259 10.7065 34.385 9.75855 35.0061 9.21036Z" fill="#1A1A1A"/>
<path fill-rule="evenodd" clip-rule="evenodd" d="M13.9913 9.21036C13.3702 8.66217 12.4223 8.72128 11.8741 9.34239C9.51515 12.0151 8.08203 15.5295 8.08203 19.3749C8.08203 23.2203 9.51515 26.7347 11.8741 29.4073C12.4223 30.0284 13.3702 30.0875 13.9913 29.5393C14.6124 28.9911 14.6715 28.0432 14.1233 27.4221C12.2295 25.2765 11.082 22.4615 11.082 19.3749C11.082 16.2883 12.2295 13.4733 14.1233 11.3276C14.6715 10.7065 14.6124 9.75855 13.9913 9.21036Z" fill="#1A1A1A"/>
<path fill-rule="evenodd" clip-rule="evenodd" d="M29.0061 13.7309C29.6272 13.1827 30.5751 13.2418 31.1233 13.8629C32.4192 15.331 33.207 17.2631 33.207 19.3754C33.207 21.4877 32.4192 23.4199 31.1233 24.888C30.575 25.5091 29.6271 25.5682 29.006 25.0199C28.385 24.4717 28.3259 23.5238 28.8741 22.9027C29.7047 21.9618 30.207 20.7291 30.207 19.3754C30.207 18.0218 29.7048 16.7892 28.8741 15.8481C28.3259 15.227 28.385 14.2791 29.0061 13.7309Z" fill="#1A1A1A"/>
<path fill-rule="evenodd" clip-rule="evenodd" d="M19.9913 13.7309C19.3702 13.1827 18.4223 13.2418 17.8741 13.8629C16.5782 15.331 15.7904 17.2631 15.7904 19.3754C15.7904 21.4877 16.5782 23.4199 17.8741 24.888C18.4224 25.5091 19.3703 25.5682 19.9914 25.0199C20.6124 24.4717 20.6715 23.5238 20.1233 22.9027C19.2927 21.9618 18.7904 20.7291 18.7904 19.3754C18.7904 18.0218 19.2926 16.7892 20.1233 15.8481C20.6715 15.227 20.6124 14.2791 19.9913 13.7309Z" fill="#1A1A1A"/>
<path fill-rule="evenodd" clip-rule="evenodd" d="M24.4987 17.5C25.3271 17.5 25.9987 18.1716 25.9987 19V39C25.9987 39.8284 25.3271 40.5 24.4987 40.5C23.6703 40.5 22.9987 39.8284 22.9987 39V19C22.9987 18.1716 23.6703 17.5 24.4987 17.5Z" fill="#1A1A1A"/>
</svg>
