<svg width="61" height="48" viewBox="0 0 61 48" fill="none" xmlns="http://www.w3.org/2000/svg">
<path d="M32.2929 31.2929C31.9024 31.6834 31.9024 32.3166 32.2929 32.7071C32.6834 33.0976 33.3166 33.0976 33.7071 32.7071L41.7049 24.7093C41.7122 24.702 41.7195 24.6946 41.7266 24.6871C41.8961 24.5079 42 24.2661 42 24C42 23.8644 41.973 23.7351 41.9241 23.6172C41.8753 23.4993 41.803 23.3888 41.7071 23.2929L33.7071 15.2929C33.3166 14.9024 32.6834 14.9024 32.2929 15.2929C31.9024 15.6834 31.9024 16.3166 32.2929 16.7071L38.5858 23L1 23C0.447715 23 0 23.4477 0 24C0 24.5523 0.447715 25 1 25L38.5858 25L32.2929 31.2929Z" fill="white"/>
</svg>
