<svg width="16" height="16" viewBox="0 0 16 16" fill="none" xmlns="http://www.w3.org/2000/svg">
<path d="M10.2929 11.2929C9.90237 11.6834 9.90237 12.3166 10.2929 12.7071C10.6834 13.0976 11.3166 13.0976 11.7071 12.7071L15.7071 8.70711C15.7093 8.70493 15.7115 8.70274 15.7136 8.70055C15.9038 8.5069 15.9992 8.25507 16 8.003" fill="#1A1A1A"/>
<path d="M15.7092 7.29502C15.804 7.3904 15.8757 7.50014 15.9241 7.61722C15.8738 7.49593 15.8004 7.38669 15.7092 7.29502Z" fill="#1A1A1A"/>
<path d="M15.7069 7.29269L11.7071 3.29289C11.3166 2.90237 10.6834 2.90237 10.2929 3.29289C9.90237 3.68342 9.90237 4.31658 10.2929 4.70711L12.5858 7H1C0.447715 7 0 7.44772 0 8C0 8.55229 0.447715 9 1 9H12.5858L10.2929 11.2929" fill="#1A1A1A"/>
</svg>
