<svg width="24" height="24" viewBox="0 0 24 24" fill="none" xmlns="http://www.w3.org/2000/svg">
<path d="M4.92966 19.0709C4.53913 18.6804 4.53913 18.0472 4.92966 17.6567L17.6576 4.92879C18.0481 4.53826 18.6813 4.53826 19.0718 4.92879C19.4623 5.31931 19.4623 5.95248 19.0718 6.343L6.34387 19.0709C5.95335 19.4614 5.32018 19.4614 4.92966 19.0709Z" fill="#1A1A1A"/>
<path d="M19.0717 19.0708C18.6812 19.4613 18.0481 19.4613 17.6575 19.0708L4.92961 6.34285C4.53909 5.95232 4.53909 5.31916 4.92961 4.92864C5.32014 4.53811 5.9533 4.53811 6.34383 4.92864L19.0717 17.6566C19.4623 18.0471 19.4623 18.6802 19.0717 19.0708Z" fill="#1A1A1A"/>
</svg>
