<svg width="48" height="48" viewBox="0 0 48 48" fill="none" xmlns="http://www.w3.org/2000/svg">
<path d="M24.0348 16.6519C25.2752 16.6519 26.2871 17.6637 26.2871 18.904C26.2871 20.1444 25.2752 21.1562 24.0348 21.1562C22.7946 21.1562 21.7827 20.1444 21.7827 18.904C21.75 17.6637 22.7619 16.6519 24.0348 16.6519Z" fill="#1A1A1A"/>
<path fill-rule="evenodd" clip-rule="evenodd" d="M24 6C14.0589 6 6 14.0589 6 24C6 33.9411 14.0589 42 24 42C33.9411 42 42 33.9411 42 24C42 14.0589 33.9411 6 24 6ZM24.0348 24.3549C27.0378 24.3549 29.4858 21.9069 29.4858 18.904C29.4858 15.9011 27.0378 13.4531 24.0348 13.4531C20.9993 13.4531 18.5513 15.9011 18.5513 18.904C18.5513 21.9069 20.9993 24.3549 24.0348 24.3549ZM26.2218 28.8267C27.3315 28.5655 28.4087 28.1412 29.3879 27.5211C30.1386 27.064 30.3671 26.0523 29.8775 25.3015C29.4206 24.5508 28.4087 24.3224 27.6579 24.812C25.4384 26.2155 22.5335 26.2155 20.3139 24.812C19.5632 24.3551 18.584 24.5508 18.0944 25.3015C17.6701 26.0523 17.8985 27.0315 18.6493 27.4884C19.6285 28.1087 20.7056 28.5329 21.8154 28.794L18.7798 31.8296C18.1597 32.4498 18.1597 33.4616 18.7798 34.0818C19.1062 34.4082 19.4979 34.5387 19.9222 34.5387C20.3466 34.5387 20.7382 34.3755 21.0647 34.0818L24.0675 31.0788L27.0705 34.0818C27.6906 34.7019 28.7025 34.7019 29.3226 34.0818C29.9427 33.4616 29.9427 32.4498 29.3226 31.8296L26.2218 28.8267Z" fill="#1A1A1A"/>
</svg>
