<svg width="48" height="48" viewBox="0 0 48 48" fill="none" xmlns="http://www.w3.org/2000/svg">
<path d="M19.9782 34.5179C22.6482 34.5179 24.8126 32.6063 24.8126 29.6834V8H30.6105C30.2853 11.9545 34.2164 15.7744 38.5517 15.687V21.1389C34.8441 21.1389 31.6914 19.5712 30.594 18.7012V29.6834C30.594 34.5179 26.7908 40 19.9782 40C13.1655 40 9.44531 34.5179 9.44531 29.6834C9.44531 22.86 16.6662 18.9027 21.4487 19.8699V25.4231C21.2081 25.338 20.5877 25.2121 20.0592 25.2121C17.367 25.1129 15.1437 27.2964 15.1437 29.6834C15.1437 32.3534 17.3082 34.5179 19.9782 34.5179Z" fill="#1A1A1A"/>
</svg>
