<svg width="48" height="48" viewBox="0 0 48 48" fill="none" xmlns="http://www.w3.org/2000/svg">
<mask id="path-1-inside-1_1144_446" fill="white">
<path d="M10 14C10 13.4477 10.4477 13 11 13H39C39.5523 13 40 13.4477 40 14C40 14.5523 39.5523 15 39 15H11C10.4477 15 10 14.5523 10 14Z"/>
<path d="M10 24C10 23.4477 10.4477 23 11 23H39C39.5523 23 40 23.4477 40 24C40 24.5523 39.5523 25 39 25H11C10.4477 25 10 24.5523 10 24Z"/>
<path d="M10 34C10 33.4477 10.4477 33 11 33H39C39.5523 33 40 33.4477 40 34C40 34.5523 39.5523 35 39 35H11C10.4477 35 10 34.5523 10 34Z"/>
</mask>
<path d="M10 14C10 13.4477 10.4477 13 11 13H39C39.5523 13 40 13.4477 40 14C40 14.5523 39.5523 15 39 15H11C10.4477 15 10 14.5523 10 14Z" fill="#1A1A1A"/>
<path d="M10 24C10 23.4477 10.4477 23 11 23H39C39.5523 23 40 23.4477 40 24C40 24.5523 39.5523 25 39 25H11C10.4477 25 10 24.5523 10 24Z" fill="#1A1A1A"/>
<path d="M10 34C10 33.4477 10.4477 33 11 33H39C39.5523 33 40 33.4477 40 34C40 34.5523 39.5523 35 39 35H11C10.4477 35 10 34.5523 10 34Z" fill="#1A1A1A"/>
<path d="M11 15H39V11H11V15ZM39 13H11V17H39V13ZM11 13C11.5523 13 12 13.4477 12 14H8C8 15.6569 9.34315 17 11 17V13ZM38 14C38 13.4477 38.4477 13 39 13V17C40.6569 17 42 15.6569 42 14H38ZM39 15C38.4477 15 38 14.5523 38 14H42C42 12.3431 40.6569 11 39 11V15ZM11 11C9.34315 11 8 12.3431 8 14H12C12 14.5523 11.5523 15 11 15V11ZM11 25H39V21H11V25ZM39 23H11V27H39V23ZM11 23C11.5523 23 12 23.4477 12 24H8C8 25.6569 9.34315 27 11 27V23ZM38 24C38 23.4477 38.4477 23 39 23V27C40.6569 27 42 25.6569 42 24H38ZM39 25C38.4477 25 38 24.5523 38 24H42C42 22.3431 40.6569 21 39 21V25ZM11 21C9.34315 21 8 22.3431 8 24H12C12 24.5523 11.5523 25 11 25V21ZM11 35H39V31H11V35ZM39 33H11V37H39V33ZM11 33C11.5523 33 12 33.4477 12 34H8C8 35.6569 9.34315 37 11 37V33ZM38 34C38 33.4477 38.4477 33 39 33V37C40.6569 37 42 35.6569 42 34H38ZM39 35C38.4477 35 38 34.5523 38 34H42C42 32.3431 40.6569 31 39 31V35ZM11 31C9.34315 31 8 32.3431 8 34H12C12 34.5523 11.5523 35 11 35V31Z" fill="#1A1A1A" mask="url(#path-1-inside-1_1144_446)"/>
</svg>
