<svg width="48" height="48" viewBox="0 0 48 48" fill="none" xmlns="http://www.w3.org/2000/svg">
<path fill-rule="evenodd" clip-rule="evenodd" d="M29.6954 5.5H18.3036C7.90698 5.5 5.44531 7.95448 5.44531 18.3207V29.6793C5.44531 40.0455 7.90698 42.5 18.3036 42.5H29.6954C40.092 42.5 42.5537 40.0455 42.5537 29.6793V18.3207C42.5537 7.95448 40.092 5.5 29.6954 5.5ZM35.0116 17.2507C35.8234 17.2507 36.0067 17.6685 35.8234 18.243C35.5373 19.5595 33.1615 23.0518 32.4257 24.1335C32.2859 24.339 32.2053 24.4575 32.2094 24.4575C31.9214 24.9275 31.8166 25.1364 32.2094 25.6586C32.3514 25.8517 32.6526 26.1463 32.9967 26.483C33.3506 26.8293 33.7501 27.2202 34.0688 27.5909C35.2211 28.8965 36.1115 29.9931 36.3471 30.7504C36.5566 31.5076 36.19 31.8993 35.4044 31.8993H32.707C31.9922 31.8993 31.6237 31.49 30.8384 30.6176C30.5017 30.2436 30.0884 29.7844 29.5383 29.2359C27.9408 27.6953 27.2337 27.4864 26.8409 27.4864C26.291 27.4864 26.1338 27.617 26.1338 28.4003V30.8287C26.1338 31.4815 25.9243 31.8732 24.1959 31.8732C21.3414 31.8732 18.1727 30.1498 15.9467 26.9381C12.5946 22.238 11.678 18.6869 11.678 17.9818C11.678 17.5902 11.809 17.2246 12.5946 17.2246H15.3182C15.9991 17.2246 16.2609 17.5118 16.5228 18.2691C17.8584 22.1075 20.0844 25.4758 21.001 25.4758C21.3414 25.4758 21.4985 25.3192 21.4985 24.4575V20.4885C21.4339 19.3604 21.04 18.8689 20.748 18.5044C20.5668 18.2784 20.4248 18.1012 20.4248 17.8513C20.4248 17.5379 20.6867 17.2246 21.1057 17.2246H25.3482C25.9243 17.2246 26.1338 17.5379 26.1338 18.2168V23.5697C26.1338 24.1442 26.3695 24.3531 26.5528 24.3531C26.8933 24.3531 27.1813 24.1442 27.8099 23.5175C29.7478 21.3502 31.1357 18.008 31.1357 18.008C31.319 17.6163 31.6333 17.2507 32.3142 17.2507H35.0116Z" fill="#1A1A1A"/>
</svg>
