<svg width="24" height="24" viewBox="0 0 24 24" fill="none" xmlns="http://www.w3.org/2000/svg">
<path d="M11 20.5C11 21.3284 10.3284 22 9.5 22C8.67157 22 8 21.3284 8 20.5C8 19.6716 8.67157 19 9.5 19C10.3284 19 11 19.6716 11 20.5Z" fill="#1A1A1A"/>
<path d="M18 20.5C18 21.3284 17.3284 22 16.5 22C15.6716 22 15 21.3284 15 20.5C15 19.6716 15.6716 19 16.5 19C17.3284 19 18 19.6716 18 20.5Z" fill="#1A1A1A"/>
<path fill-rule="evenodd" clip-rule="evenodd" d="M1 3C1 2.44772 1.44772 2 2 2H4.14208C5.12922 2 5.96872 2.72022 6.11882 3.69589L6.4733 6H19.7576C21.0432 6 21.982 7.19081 21.7058 8.43386L20.1502 15.4339C19.9469 16.3489 19.1352 17 18.1978 17H7.85792C6.87078 17 6.03128 16.2798 5.88118 15.3041L4.14208 4H2C1.44772 4 1 3.55228 1 3ZM6.781 8L7.85792 15L18.1978 15L19.7534 8L6.781 8Z" fill="#1A1A1A"/>
</svg>
