<svg width="48" height="48" viewBox="0 0 48 48" fill="none" xmlns="http://www.w3.org/2000/svg">
<path d="M24.0023 6.54492C19.2621 6.54492 18.6672 6.56565 16.8055 6.65038C14.9473 6.73547 13.679 7.02965 12.5692 7.46129C11.4213 7.9071 10.4475 8.50347 9.47733 9.47401C8.50645 10.4442 7.91011 11.418 7.46285 12.5656C7.03013 13.6758 6.7356 14.9446 6.65196 16.802C6.56869 18.6638 6.54688 19.2591 6.54688 23.9995C6.54688 28.7398 6.56797 29.3329 6.65233 31.1947C6.73778 33.0529 7.03195 34.3213 7.46321 35.4311C7.90938 36.5791 8.50572 37.5529 9.47624 38.5231C10.446 39.494 11.4198 40.0918 12.5671 40.5376C13.6776 40.9693 14.9463 41.2635 16.804 41.3486C18.6658 41.4333 19.2603 41.454 24.0002 41.454C28.7407 41.454 29.3338 41.4333 31.1956 41.3486C33.0537 41.2635 34.3235 40.9693 35.434 40.5376C36.5816 40.0918 37.5539 39.494 38.5237 38.5231C39.4946 37.5529 40.091 36.5791 40.5382 35.4315C40.9673 34.3213 41.2618 33.0526 41.3491 31.1951C41.4327 29.3333 41.4545 28.7398 41.4545 23.9995C41.4545 19.2591 41.4327 18.6642 41.3491 16.8024C41.2618 14.9442 40.9673 13.6758 40.5382 12.566C40.091 11.418 39.4946 10.4442 38.5237 9.47401C37.5528 8.5031 36.582 7.90674 35.4329 7.46129C34.3202 7.02965 33.0512 6.73547 31.193 6.65038C29.3313 6.56565 28.7386 6.54492 23.9969 6.54492H24.0023ZM22.4366 9.69038C22.9013 9.68965 23.4198 9.69038 24.0023 9.69038C28.6626 9.69038 29.2149 9.7071 31.0552 9.79074C32.757 9.86856 33.6806 10.1529 34.2959 10.3918C35.1104 10.7082 35.6911 11.0864 36.3016 11.6973C36.9125 12.3082 37.2907 12.89 37.6078 13.7046C37.8467 14.3191 38.1314 15.2427 38.2088 16.9446C38.2925 18.7846 38.3106 19.3373 38.3106 23.9955C38.3106 28.6536 38.2925 29.2064 38.2088 31.0464C38.131 32.7482 37.8467 33.6718 37.6078 34.2864C37.2914 35.1009 36.9125 35.6809 36.3016 36.2915C35.6907 36.9024 35.1107 37.2806 34.2959 37.5969C33.6813 37.8369 32.757 38.1206 31.0552 38.1984C29.2153 38.282 28.6626 38.3002 24.0023 38.3002C19.3418 38.3002 18.7894 38.282 16.9495 38.1984C15.2477 38.1198 14.3241 37.8355 13.7085 37.5966C12.894 37.2802 12.3122 36.902 11.7013 36.2911C11.0904 35.6802 10.7122 35.0998 10.3951 34.2849C10.1562 33.6704 9.8715 32.7467 9.79405 31.0449C9.71042 29.2049 9.69369 28.6522 9.69369 23.9911C9.69369 19.33 9.71042 18.7802 9.79405 16.9402C9.87187 15.2384 10.1562 14.3147 10.3951 13.6995C10.7115 12.8849 11.0904 12.3031 11.7013 11.6922C12.3122 11.0813 12.894 10.7031 13.7085 10.386C14.3237 10.146 15.2477 9.86238 16.9495 9.78419C18.5596 9.71147 19.1836 9.68965 22.4366 9.68601V9.69038ZM33.3192 12.5886C32.1628 12.5886 31.2247 13.5256 31.2247 14.6824C31.2247 15.8387 32.1628 16.7769 33.3192 16.7769C34.4755 16.7769 35.4136 15.8387 35.4136 14.6824C35.4136 13.526 34.4755 12.5878 33.3192 12.5878V12.5886ZM24.0023 15.0358C19.0523 15.0358 15.039 19.0493 15.039 23.9995C15.039 28.9496 19.0523 32.9613 24.0023 32.9613C28.9524 32.9613 32.9643 28.9496 32.9643 23.9995C32.9643 19.0493 28.952 15.0358 24.002 15.0358H24.0023ZM24.0023 18.1813C27.2153 18.1813 29.8204 20.786 29.8204 23.9995C29.8204 27.2126 27.2153 29.8176 24.0023 29.8176C20.789 29.8176 18.1843 27.2126 18.1843 23.9995C18.1843 20.786 20.789 18.1813 24.0023 18.1813Z" fill="#1A1A1A"/>
</svg>
