<svg width="32" height="32" viewBox="0 0 32 32" fill="none" xmlns="http://www.w3.org/2000/svg">
<rect width="32" height="32" rx="16" fill="#EBDFE1"/>
<path d="M16 22.5C16 23.3284 15.3284 24 14.5 24C13.6716 24 13 23.3284 13 22.5C13 21.6716 13.6716 21 14.5 21C15.3284 21 16 21.6716 16 22.5Z" fill="#1A1A1A"/>
<path d="M21 22.5C21 23.3284 20.3284 24 19.5 24C18.6716 24 18 23.3284 18 22.5C18 21.6716 18.6716 21 19.5 21C20.3284 21 21 21.6716 21 22.5Z" fill="#1A1A1A"/>
<path fill-rule="evenodd" clip-rule="evenodd" d="M7 9C7 8.44772 7.44772 8 8 8H9.1802C10.1336 8 10.9544 8.67292 11.1414 9.60777L11.4198 11H21.8496C23.0703 11 23.9985 12.0816 23.8269 13.2828L23.1126 18.2828C22.9718 19.2681 22.128 20 21.1327 20H12.8198C11.8664 20 11.0456 19.3271 10.8586 18.3922L9.1802 10H8C7.44772 10 7 9.55228 7 9ZM11.8198 13L12.8198 18L21.1327 18L21.847 13L11.8198 13Z" fill="#1A1A1A"/>
</svg>
