<svg width="32" height="32" viewBox="0 0 32 32" fill="none" xmlns="http://www.w3.org/2000/svg">
<rect width="32" height="32" rx="16" fill="#EBDFE1"/>
<path fill-rule="evenodd" clip-rule="evenodd" d="M11 10.0771V21.9228C11.0123 21.9326 11.032 21.946 11.0617 21.9594C11.1829 22.0143 11.3405 22.0153 11.4634 21.9515L22.9248 16L11.4634 10.0485C11.3405 9.98468 11.1829 9.98565 11.0617 10.0406C11.035 10.0527 11.0153 10.0653 11.0019 10.0756L11 10.0771ZM10.2361 8.21892C10.8682 7.9325 11.6727 7.9036 12.3851 8.27352L23.8763 14.2405C24.5583 14.5947 25 15.2499 25 16C25 16.75 24.5583 17.4053 23.8763 17.7595L12.3851 23.7265C11.6727 24.0964 10.8682 24.0675 10.2361 23.7811C9.60891 23.4968 9 22.871 9 21.967V10.033C9 9.129 9.60891 8.50315 10.2361 8.21892Z" fill="#1A1A1A"/>
</svg>
